<svg xmlns="http://www.w3.org/2000/svg" viewBox="0 0 96.5 83.43"><defs><style>.cls-1{fill:#bababa;}</style></defs><title>facemask</title><g id="Layer_2" data-name="Layer 2"><g id="レイヤー_1" data-name="レイヤー 1"><path class="cls-1" d="M6.08,16.17C10,11.26,17.64,2.73,24.42.72A16.31,16.31,0,0,1,29,0a9.18,9.18,0,0,1,6.78,2.62c1.84,1.89,3.72,5.66,2.28,12.93L38,16l-.42-.16c-1.53-.46-2.86-.88-4-1.24l-.31-.09,0-.3c.7-3.86.35-6.75-1-8.12A4.29,4.29,0,0,0,29.05,5a11.63,11.63,0,0,0-3.21.52c-4.34,1.28-9.78,6.81-12.64,10l-.13.09c-1.86.86-3.09,1.09-6.26,1.22l-1.29.05Z"/><path class="cls-1" d="M73.36,54.42a35,35,0,0,1-1.45-3.75l-.08-.27.19-.16c5.28-5,17.71-17.64,19.22-26.09.5-2.84.57-6.58-1.95-8.24a6.5,6.5,0,0,0-3.6-.93,14.06,14.06,0,0,0-7.44,2.41,38.7,38.7,0,0,0-6,5l-.17.18-.22-.07a3.71,3.71,0,0,0-.48-.1l-5.28-.79.56-.56a46.78,46.78,0,0,1,8.88-7.87A19.25,19.25,0,0,1,85.72,10,11.2,11.2,0,0,1,92,11.75c2.17,1.42,5.58,5,4.11,13.28-1.8,10.13-14.5,23.14-21.9,30l-.42.38Z"/><path class="cls-1" d="M32.56,83.43a24.21,24.21,0,0,1-9.81-2C7.12,74.48.8,56.69.1,42.35c-.5-10.45,1-16.63,1.31-17.76l1.18-4.17,4.31-.17c1.06,0,1.95-.1,2.73-.18a13.28,13.28,0,0,0,4.5-1.34c.81-.37,1.49-.73,2.17-1.09,2.16-1.12,4.39-2.28,7.35-2.28a12.06,12.06,0,0,1,3.58.56l.28.08.45.19c1.52.59,3.28,1.21,5.2,1.83,1.15.37,2.47.77,4,1.22A209.51,209.51,0,0,0,63.4,24.93l4.84.72,1.35.19A1.57,1.57,0,0,1,70.8,28l-2.23,5.24a26.33,26.33,0,0,0-1.52,12.39A36,36,0,0,0,69,54c.6,1.67,1.1,2.72,1.12,2.76l.6,1.22.44.93a2.78,2.78,0,0,1-.65,3.33l-1.79,1.59C68.65,63.85,61.78,70,56.59,74,52.94,76.82,43.28,83.43,32.56,83.43Zm-24-29.08c2.16,7.25,6.82,16.81,16.75,21.22a17.65,17.65,0,0,0,7.23,1.49c8.77,0,17-5.68,20.13-8.12,1.1-.85,2.29-1.81,3.47-2.78-.16-.44-.29-.75-.42-1.09,0,0-.42-1.06-.53-1.38a58.7,58.7,0,0,1-3.42-16.56A57.69,57.69,0,0,1,53.05,32c.08-.39.17-.76.25-1.11l.28-1.16C35.71,26.26,25.47,22.05,25.37,22a6.18,6.18,0,0,0-1.72-.27c-1.41,0-2.59.61-4.37,1.55-.71.37-1.49.78-2.4,1.21A21.71,21.71,0,0,1,7.5,26.61,48,48,0,0,0,6.37,37.33l1,.07,35.51,1.19a1.83,1.83,0,0,1,1.26.57,1.76,1.76,0,0,1,.48,1.29,1.79,1.79,0,0,1-1.8,1.74L8.75,41,6.45,41c0,.41,0,.74,0,1.07a53,53,0,0,0,1.17,8.61l32.56,1.29a1.8,1.8,0,0,1,1.25.57,1.83,1.83,0,0,1,.47,1.3,1.78,1.78,0,0,1-1.79,1.73L8.56,54.31Z"/></g></g></svg>