<svg xmlns="http://www.w3.org/2000/svg" viewBox="0 0 124.47 88.26"><defs><style>.cls-1{fill:#bababa;}</style></defs><title>meeting</title><g id="Layer_2" data-name="Layer 2"><g id="レイヤー_1" data-name="レイヤー 1"><circle class="cls-1" cx="62.24" cy="7.55" r="7.55" transform="translate(45.29 67.91) rotate(-81.24)"/><circle class="cls-1" cx="101.26" cy="20.86" r="7.55" transform="translate(64.29 117.41) rotate(-80.68)"/><circle class="cls-1" cx="23.21" cy="20.86" r="7.55" transform="translate(-3.07 4.03) rotate(-9.32)"/><circle class="cls-1" cx="112.87" cy="50.94" r="7.55"/><circle class="cls-1" cx="11.61" cy="50.94" r="7.55"/><path class="cls-1" d="M73.84,29.06v-4a7.8,7.8,0,0,0-7.8-7.8H58.43a7.8,7.8,0,0,0-7.8,7.8v4Z"/><path class="cls-1" d="M21.08,63.1a7.77,7.77,0,0,0-5.67-2.45H7.8A7.8,7.8,0,0,0,0,68.45V82.29H14.43Z"/><path class="cls-1" d="M116.67,60.65h-7.6a7.75,7.75,0,0,0-5.67,2.45l6.65,19.19h14.42V68.45A7.8,7.8,0,0,0,116.67,60.65Z"/><path class="cls-1" d="M89,32.75H35.51L16.27,88.26H108.2Zm-39.1,16.5,2.39-10.42h20l2.39,10.42Z"/><path class="cls-1" d="M101.69,52.2a10.41,10.41,0,0,1-.07-1.26,11.27,11.27,0,0,1,11.25-11.25h0V38.37a7.81,7.81,0,0,0-7.8-7.81H97.46a7.8,7.8,0,0,0-4.78,1.64l6.94,20Z"/><path class="cls-1" d="M11.61,39.69A11.27,11.27,0,0,1,22.86,50.94a10.39,10.39,0,0,1-.08,1.26h2.08l6.93-20A7.8,7.8,0,0,0,27,30.56h-7.6a7.81,7.81,0,0,0-7.8,7.81v1.32Z"/></g></g></svg>